<mxfile host="app.diagrams.net" modified="2024-06-11T14:50:37.323Z" agent="Mozilla/5.0 (Windows NT 10.0; Win64; x64) AppleWebKit/537.36 (KHTML, like Gecko) Chrome/125.0.0.0 Safari/537.36 Edg/125.0.0.0" etag="FeV1X_Rvw8Uews9F2Ebc" version="24.5.3" type="device">
  <diagram id="3j9G0F825_cHGCq9AKto" name="Page-2">
    <mxGraphModel dx="3575" dy="1628" grid="1" gridSize="10" guides="1" tooltips="1" connect="1" arrows="1" fold="1" page="1" pageScale="1" pageWidth="827" pageHeight="1169" math="0" shadow="0">
      <root>
        <mxCell id="0" />
        <mxCell id="1" parent="0" />
        <mxCell id="xWcjb8qhsKGaQlNw6-6s-24" value="" style="rounded=0;whiteSpace=wrap;html=1;" parent="1" vertex="1">
          <mxGeometry x="-171" y="1180" width="1250" height="860" as="geometry" />
        </mxCell>
        <mxCell id="xWcjb8qhsKGaQlNw6-6s-25" value="" style="rounded=0;whiteSpace=wrap;html=1;fillColor=#f5f5f5;fontColor=#333333;strokeColor=#666666;rotation=-270;" parent="1" vertex="1">
          <mxGeometry x="-490.93" y="1504.69" width="857.5" height="213.13" as="geometry" />
        </mxCell>
        <mxCell id="xWcjb8qhsKGaQlNw6-6s-26" value="&lt;font size=&quot;3&quot;&gt;&lt;b&gt;LOGO&lt;/b&gt;&lt;/font&gt;" style="rhombus;whiteSpace=wrap;html=1;fillColor=#dae8fc;strokeColor=#6c8ebf;" parent="1" vertex="1">
          <mxGeometry x="-160" y="1190" width="80" height="80" as="geometry" />
        </mxCell>
        <mxCell id="xWcjb8qhsKGaQlNw6-6s-30" value="&lt;b&gt;Logout&lt;/b&gt;" style="rounded=0;whiteSpace=wrap;html=1;fillColor=#dae8fc;strokeColor=#6c8ebf;" parent="1" vertex="1">
          <mxGeometry x="909" y="1210" width="90" height="40" as="geometry" />
        </mxCell>
        <mxCell id="xWcjb8qhsKGaQlNw6-6s-32" value="" style="rounded=0;whiteSpace=wrap;html=1;fillColor=#f5f5f5;fontColor=#f5f5f5;strokeColor=#666666;" parent="1" vertex="1">
          <mxGeometry x="-170" y="1940" width="1249" height="100" as="geometry" />
        </mxCell>
        <mxCell id="xWcjb8qhsKGaQlNw6-6s-40" value="&lt;font style=&quot;font-size: 14px;&quot;&gt;Footer Information&lt;/font&gt;" style="text;html=1;align=center;verticalAlign=middle;whiteSpace=wrap;rounded=0;" parent="1" vertex="1">
          <mxGeometry x="383" y="1975" width="126" height="30" as="geometry" />
        </mxCell>
        <mxCell id="xWcjb8qhsKGaQlNw6-6s-41" value="&lt;font style=&quot;font-size: 18px;&quot;&gt;&lt;b&gt;Admin Home&lt;/b&gt;&lt;/font&gt;" style="text;html=1;align=center;verticalAlign=middle;whiteSpace=wrap;rounded=0;" parent="1" vertex="1">
          <mxGeometry x="360" y="1110" width="176" height="30" as="geometry" />
        </mxCell>
        <mxCell id="xWcjb8qhsKGaQlNw6-6s-42" value="" style="rounded=0;whiteSpace=wrap;html=1;" parent="1" vertex="1">
          <mxGeometry x="70" y="1360" width="380" height="230" as="geometry" />
        </mxCell>
        <mxCell id="xWcjb8qhsKGaQlNw6-6s-43" value="&lt;b&gt;&lt;font style=&quot;font-size: 18px;&quot;&gt;Welcome Message&lt;/font&gt;&lt;/b&gt;" style="text;html=1;align=center;verticalAlign=middle;whiteSpace=wrap;rounded=0;" parent="1" vertex="1">
          <mxGeometry x="70" y="1200" width="230" height="30" as="geometry" />
        </mxCell>
        <mxCell id="xWcjb8qhsKGaQlNw6-6s-44" value="Current user information" style="text;html=1;align=center;verticalAlign=middle;whiteSpace=wrap;rounded=0;" parent="1" vertex="1">
          <mxGeometry x="90" y="1240" width="160" height="30" as="geometry" />
        </mxCell>
        <mxCell id="xWcjb8qhsKGaQlNw6-6s-45" value="" style="rounded=0;whiteSpace=wrap;html=1;" parent="1" vertex="1">
          <mxGeometry x="70" y="1660" width="380" height="230" as="geometry" />
        </mxCell>
        <mxCell id="xWcjb8qhsKGaQlNw6-6s-46" value="" style="rounded=0;whiteSpace=wrap;html=1;" parent="1" vertex="1">
          <mxGeometry x="590" y="1360" width="380" height="230" as="geometry" />
        </mxCell>
        <mxCell id="xWcjb8qhsKGaQlNw6-6s-47" value="" style="rounded=0;whiteSpace=wrap;html=1;" parent="1" vertex="1">
          <mxGeometry x="590" y="1650" width="380" height="230" as="geometry" />
        </mxCell>
        <mxCell id="xWcjb8qhsKGaQlNw6-6s-48" value="&lt;font style=&quot;font-size: 14px;&quot;&gt;Menu Options&lt;/font&gt;" style="text;html=1;align=center;verticalAlign=middle;whiteSpace=wrap;rounded=0;" parent="1" vertex="1">
          <mxGeometry x="-150" y="1350" width="110" height="30" as="geometry" />
        </mxCell>
        <mxCell id="xWcjb8qhsKGaQlNw6-6s-49" value="&lt;font style=&quot;font-size: 14px;&quot;&gt;Dashboard&lt;/font&gt;" style="text;html=1;align=center;verticalAlign=middle;whiteSpace=wrap;rounded=0;" parent="1" vertex="1">
          <mxGeometry x="-165" y="1420" width="110" height="30" as="geometry" />
        </mxCell>
        <mxCell id="xWcjb8qhsKGaQlNw6-6s-50" value="&lt;font style=&quot;font-size: 14px;&quot;&gt;Transactions&lt;/font&gt;" style="text;html=1;align=center;verticalAlign=middle;whiteSpace=wrap;rounded=0;" parent="1" vertex="1">
          <mxGeometry x="-160" y="1460" width="110" height="30" as="geometry" />
        </mxCell>
        <mxCell id="xWcjb8qhsKGaQlNw6-6s-51" value="&lt;font style=&quot;font-size: 14px;&quot;&gt;Manage Accounts&lt;/font&gt;" style="text;html=1;align=center;verticalAlign=middle;whiteSpace=wrap;rounded=0;" parent="1" vertex="1">
          <mxGeometry x="-160" y="1504.69" width="140" height="30" as="geometry" />
        </mxCell>
        <mxCell id="xWcjb8qhsKGaQlNw6-6s-53" value="&lt;font style=&quot;font-size: 14px;&quot;&gt;Register new customer&lt;/font&gt;" style="text;html=1;align=center;verticalAlign=middle;whiteSpace=wrap;rounded=0;" parent="1" vertex="1">
          <mxGeometry x="-165" y="1550" width="180" height="30" as="geometry" />
        </mxCell>
        <mxCell id="xWcjb8qhsKGaQlNw6-6s-54" value="&lt;font style=&quot;font-size: 14px;&quot;&gt;Manage users&lt;/font&gt;" style="text;html=1;align=center;verticalAlign=middle;whiteSpace=wrap;rounded=0;" parent="1" vertex="1">
          <mxGeometry x="-160" y="1595" width="110" height="30" as="geometry" />
        </mxCell>
        <mxCell id="xWcjb8qhsKGaQlNw6-6s-55" value="&lt;font style=&quot;font-size: 14px;&quot;&gt;Profile&lt;/font&gt;" style="text;html=1;align=center;verticalAlign=middle;whiteSpace=wrap;rounded=0;" parent="1" vertex="1">
          <mxGeometry x="-180" y="1640" width="110" height="30" as="geometry" />
        </mxCell>
        <mxCell id="xWcjb8qhsKGaQlNw6-6s-56" style="edgeStyle=orthogonalEdgeStyle;rounded=0;orthogonalLoop=1;jettySize=auto;html=1;exitX=0.5;exitY=1;exitDx=0;exitDy=0;" parent="1" source="xWcjb8qhsKGaQlNw6-6s-55" target="xWcjb8qhsKGaQlNw6-6s-55" edge="1">
          <mxGeometry relative="1" as="geometry" />
        </mxCell>
        <mxCell id="xWcjb8qhsKGaQlNw6-6s-57" value="&lt;font style=&quot;font-size: 14px;&quot;&gt;Manage Accounts&lt;/font&gt;" style="text;html=1;align=center;verticalAlign=middle;whiteSpace=wrap;rounded=0;" parent="1" vertex="1">
          <mxGeometry x="180" y="1450" width="140" height="30" as="geometry" />
        </mxCell>
        <mxCell id="xWcjb8qhsKGaQlNw6-6s-58" value="&lt;font style=&quot;font-size: 14px;&quot;&gt;Register new customer&lt;/font&gt;" style="text;html=1;align=center;verticalAlign=middle;whiteSpace=wrap;rounded=0;" parent="1" vertex="1">
          <mxGeometry x="690" y="1450" width="180" height="30" as="geometry" />
        </mxCell>
        <mxCell id="xWcjb8qhsKGaQlNw6-6s-59" value="&lt;font style=&quot;font-size: 14px;&quot;&gt;Manage users&lt;/font&gt;" style="text;html=1;align=center;verticalAlign=middle;whiteSpace=wrap;rounded=0;" parent="1" vertex="1">
          <mxGeometry x="725" y="1754" width="110" height="30" as="geometry" />
        </mxCell>
        <mxCell id="xWcjb8qhsKGaQlNw6-6s-60" value="&lt;font style=&quot;font-size: 14px;&quot;&gt;View transactions&lt;/font&gt;" style="text;html=1;align=center;verticalAlign=middle;whiteSpace=wrap;rounded=0;" parent="1" vertex="1">
          <mxGeometry x="190" y="1754" width="120" height="30" as="geometry" />
        </mxCell>
        <mxCell id="xWcjb8qhsKGaQlNw6-6s-62" value="" style="endArrow=none;html=1;rounded=0;" parent="1" edge="1">
          <mxGeometry width="50" height="50" relative="1" as="geometry">
            <mxPoint x="-30" y="1400" as="sourcePoint" />
            <mxPoint x="-150" y="1400" as="targetPoint" />
          </mxGeometry>
        </mxCell>
        <mxCell id="aKq3XG5fFjcKbEWgmj6b-5" value="&lt;h1 style=&quot;margin-top: 0px;&quot;&gt;A&lt;/h1&gt;" style="text;html=1;whiteSpace=wrap;overflow=hidden;rounded=0;align=center;" vertex="1" parent="1">
          <mxGeometry x="500" y="1595" width="30" height="40" as="geometry" />
        </mxCell>
        <mxCell id="aKq3XG5fFjcKbEWgmj6b-7" value="&lt;h1 style=&quot;margin-top: 0px;&quot;&gt;B&lt;/h1&gt;" style="text;html=1;whiteSpace=wrap;overflow=hidden;rounded=0;align=center;" vertex="1" parent="1">
          <mxGeometry x="-15" y="1200" width="30" height="40" as="geometry" />
        </mxCell>
        <mxCell id="aKq3XG5fFjcKbEWgmj6b-9" value="&lt;h1 style=&quot;margin-top: 0px;&quot;&gt;D&lt;/h1&gt;" style="text;html=1;whiteSpace=wrap;overflow=hidden;rounded=0;align=center;" vertex="1" parent="1">
          <mxGeometry x="384" y="1380" width="30" height="40" as="geometry" />
        </mxCell>
        <mxCell id="aKq3XG5fFjcKbEWgmj6b-10" value="&lt;h1 style=&quot;margin-top: 0px;&quot;&gt;E&lt;/h1&gt;" style="text;html=1;whiteSpace=wrap;overflow=hidden;rounded=0;align=center;" vertex="1" parent="1">
          <mxGeometry x="909" y="1370" width="30" height="40" as="geometry" />
        </mxCell>
        <mxCell id="aKq3XG5fFjcKbEWgmj6b-11" value="&lt;h1 style=&quot;margin-top: 0px;&quot;&gt;F&lt;/h1&gt;" style="text;html=1;whiteSpace=wrap;overflow=hidden;rounded=0;align=center;" vertex="1" parent="1">
          <mxGeometry x="410" y="1670" width="30" height="40" as="geometry" />
        </mxCell>
        <mxCell id="aKq3XG5fFjcKbEWgmj6b-12" value="&lt;h1 style=&quot;margin-top: 0px;&quot;&gt;G&lt;/h1&gt;" style="text;html=1;whiteSpace=wrap;overflow=hidden;rounded=0;align=center;" vertex="1" parent="1">
          <mxGeometry x="920" y="1670" width="30" height="40" as="geometry" />
        </mxCell>
        <mxCell id="aKq3XG5fFjcKbEWgmj6b-13" value="&lt;h1 style=&quot;margin-top: 0px;&quot;&gt;H&lt;/h1&gt;" style="text;html=1;whiteSpace=wrap;overflow=hidden;rounded=0;align=center;" vertex="1" parent="1">
          <mxGeometry x="509" y="1190" width="30" height="40" as="geometry" />
        </mxCell>
        <mxCell id="aKq3XG5fFjcKbEWgmj6b-18" value="&lt;h1 style=&quot;margin-top: 0px;&quot;&gt;C&lt;/h1&gt;" style="text;html=1;whiteSpace=wrap;overflow=hidden;rounded=0;align=center;" vertex="1" parent="1">
          <mxGeometry x="610" y="1960" width="30" height="40" as="geometry" />
        </mxCell>
      </root>
    </mxGraphModel>
  </diagram>
</mxfile>
